<svg width="25" height="24" viewBox="0 0 25 24" fill="none" xmlns="http://www.w3.org/2000/svg">
<path d="M20.1138 11.0306C20.0442 11.1004 19.9614 11.1557 19.8704 11.1934C19.7793 11.2312 19.6817 11.2506 19.5832 11.2506C19.4846 11.2506 19.387 11.2312 19.296 11.1934C19.2049 11.1557 19.1222 11.1004 19.0526 11.0306L13.5832 5.56032V20.25C13.5832 20.4489 13.5042 20.6397 13.3635 20.7803C13.2229 20.921 13.0321 21 12.8332 21C12.6343 21 12.4435 20.921 12.3029 20.7803C12.1622 20.6397 12.0832 20.4489 12.0832 20.25V5.56032L6.61381 11.0306C6.47308 11.1714 6.2822 11.2504 6.08318 11.2504C5.88416 11.2504 5.69329 11.1714 5.55256 11.0306C5.41183 10.8899 5.33276 10.699 5.33276 10.5C5.33276 10.301 5.41183 10.1101 5.55256 9.96939L12.3026 3.21939C12.3722 3.14965 12.4549 3.09433 12.546 3.05659C12.637 3.01885 12.7346 2.99942 12.8332 2.99942C12.9317 2.99942 13.0293 3.01885 13.1204 3.05659C13.2114 3.09433 13.2942 3.14965 13.3638 3.21939L20.1138 9.96939C20.1835 10.039 20.2389 10.1218 20.2766 10.2128C20.3143 10.3039 20.3338 10.4014 20.3338 10.5C20.3338 10.5986 20.3143 10.6962 20.2766 10.7872C20.2389 10.8783 20.1835 10.961 20.1138 11.0306Z" fill="#11C308"/>
</svg>
