<svg width="25" height="24" viewBox="0 0 25 24" fill="none" xmlns="http://www.w3.org/2000/svg">
<path d="M19.7803 12.9694C19.7107 12.8996 19.6279 12.8443 19.5369 12.8066C19.4458 12.7688 19.3482 12.7494 19.2497 12.7494C19.1511 12.7494 19.0535 12.7688 18.9625 12.8066C18.8714 12.8443 18.7887 12.8996 18.7191 12.9694L13.2497 18.4397V3.74999C13.2497 3.55108 13.1707 3.36031 13.03 3.21966C12.8894 3.07901 12.6986 2.99999 12.4997 2.99999C12.3008 2.99999 12.11 3.07901 11.9694 3.21966C11.8287 3.36031 11.7497 3.55108 11.7497 3.74999V18.4397L6.28031 12.9694C6.13958 12.8286 5.94871 12.7496 5.74968 12.7496C5.55066 12.7496 5.35979 12.8286 5.21906 12.9694C5.07833 13.1101 4.99927 13.301 4.99927 13.5C4.99927 13.699 5.07833 13.8899 5.21906 14.0306L11.9691 20.7806C12.0387 20.8503 12.1214 20.9057 12.2125 20.9434C12.3035 20.9812 12.4011 21.0006 12.4997 21.0006C12.5982 21.0006 12.6958 20.9812 12.7869 20.9434C12.8779 20.9057 12.9607 20.8503 13.0303 20.7806L19.7803 14.0306C19.85 13.961 19.9054 13.8782 19.9431 13.7872C19.9808 13.6961 20.0003 13.5986 20.0003 13.5C20.0003 13.4014 19.9808 13.3038 19.9431 13.2128C19.9054 13.1217 19.85 13.039 19.7803 12.9694Z" fill="#049FA7"/>
</svg>
