<svg width="19" height="19" viewBox="0 0 19 19" fill="none" xmlns="http://www.w3.org/2000/svg">
<g clip-path="url(#clip0_1_11942)">
<path d="M2.5 3C1.96957 3 1.46086 3.21071 1.08579 3.58579C0.710714 3.96086 0.5 4.46957 0.5 5L0.5 14C0.5 14.5304 0.710714 15.0391 1.08579 15.4142C1.46086 15.7893 1.96957 16 2.5 16H6.5V3H2.5Z" fill="#009A49"/>
<path d="M6.5 3H12.5V16H6.5V3Z" fill="#EEEEEE"/>
<path d="M16.5 3H12.5V16H16.5C17.0304 16 17.5391 15.7893 17.9142 15.4142C18.2893 15.0391 18.5 14.5304 18.5 14V5C18.5 4.46957 18.2893 3.96086 17.9142 3.58579C17.5391 3.21071 17.0304 3 16.5 3Z" fill="#009A49"/>
</g>
<defs>
<clipPath id="clip0_1_11942">
<rect width="18" height="18" fill="white" transform="translate(0.5 0.5)"/>
</clipPath>
</defs>
</svg>
