<svg width="25" height="25" viewBox="0 0 25 25" fill="none" xmlns="http://www.w3.org/2000/svg">
<g clip-path="url(#clip0_1_12035)">
<path d="M12.5 3.77148C10.72 3.77148 8.97991 4.29933 7.49987 5.28826C6.01983 6.27719 4.86628 7.6828 4.18509 9.32733C3.5039 10.9719 3.32567 12.7815 3.67294 14.5273C4.0202 16.2731 4.87737 17.8768 6.13604 19.1354C7.39472 20.3941 8.99836 21.2513 10.7442 21.5986C12.49 21.9458 14.2996 21.7676 15.9442 21.0864C17.5887 20.4052 18.9943 19.2517 19.9832 17.7716C20.9722 16.2916 21.5 14.5515 21.5 12.7715C21.4973 10.3854 20.5482 8.09777 18.861 6.41054C17.1737 4.7233 14.8861 3.77421 12.5 3.77148ZM12.5 20.2715C11.0166 20.2715 9.5666 19.8316 8.33323 19.0075C7.09986 18.1834 6.13856 17.0121 5.57091 15.6416C5.00325 14.2712 4.85473 12.7632 5.14411 11.3083C5.4335 9.85345 6.14781 8.51708 7.1967 7.46818C8.2456 6.41929 9.58197 5.70498 11.0368 5.4156C12.4917 5.12621 13.9997 5.27473 15.3701 5.84239C16.7406 6.41005 17.9119 7.37134 18.736 8.60471C19.5601 9.83808 20 11.2881 20 12.7715C19.9978 14.7599 19.2069 16.6663 17.8008 18.0723C16.3948 19.4784 14.4884 20.2693 12.5 20.2715ZM16.7806 8.49086C16.8504 8.56051 16.9057 8.64323 16.9434 8.73428C16.9812 8.82533 17.0006 8.92292 17.0006 9.02149C17.0006 9.12005 16.9812 9.21764 16.9434 9.30869C16.9057 9.39974 16.8504 9.48246 16.7806 9.55211L13.0306 13.3021C12.9609 13.3718 12.8782 13.4271 12.7872 13.4648C12.6961 13.5025 12.5986 13.5219 12.5 13.5219C12.4015 13.5219 12.3039 13.5025 12.2128 13.4648C12.1218 13.4271 12.0391 13.3718 11.9694 13.3021C11.8997 13.2324 11.8444 13.1497 11.8067 13.0587C11.769 12.9676 11.7496 12.87 11.7496 12.7715C11.7496 12.6729 11.769 12.5754 11.8067 12.4843C11.8444 12.3933 11.8997 12.3105 11.9694 12.2409L15.7194 8.49086C15.789 8.42113 15.8718 8.36581 15.9628 8.32807C16.0538 8.29032 16.1514 8.2709 16.25 8.2709C16.3486 8.2709 16.4462 8.29032 16.5372 8.32807C16.6283 8.36581 16.711 8.42113 16.7806 8.49086ZM9.5 1.52148C9.5 1.32257 9.57902 1.13181 9.71967 0.991154C9.86033 0.850502 10.0511 0.771484 10.25 0.771484H14.75C14.9489 0.771484 15.1397 0.850502 15.2803 0.991154C15.421 1.13181 15.5 1.32257 15.5 1.52148C15.5 1.7204 15.421 1.91116 15.2803 2.05181C15.1397 2.19247 14.9489 2.27148 14.75 2.27148H10.25C10.0511 2.27148 9.86033 2.19247 9.71967 2.05181C9.57902 1.91116 9.5 1.7204 9.5 1.52148Z" fill="#3A3A3A"/>
</g>
<defs>
<clipPath id="clip0_1_12035">
<rect width="24" height="24" fill="white" transform="translate(0.5 0.0214844)"/>
</clipPath>
</defs>
</svg>
