<svg width="25" height="24" viewBox="0 0 25 24" fill="none" xmlns="http://www.w3.org/2000/svg">
<g clip-path="url(#clip0_1_11865)">
<path d="M24.4456 10.9688L23.1331 7.6875C23.0218 7.40988 22.8296 7.17209 22.5816 7.00494C22.3335 6.83778 22.041 6.74897 21.7419 6.75H18.5V6C18.5 5.80109 18.421 5.61032 18.2803 5.46967C18.1397 5.32902 17.9489 5.25 17.75 5.25H3.5C3.10218 5.25 2.72064 5.40804 2.43934 5.68934C2.15804 5.97064 2 6.35218 2 6.75V17.25C2 17.6478 2.15804 18.0294 2.43934 18.3107C2.72064 18.592 3.10218 18.75 3.5 18.75H5.09375C5.25898 19.3953 5.63428 19.9673 6.16048 20.3757C6.68669 20.7842 7.33387 21.0059 8 21.0059C8.66613 21.0059 9.31331 20.7842 9.83952 20.3757C10.3657 19.9673 10.741 19.3953 10.9063 18.75H15.5938C15.759 19.3953 16.1343 19.9673 16.6605 20.3757C17.1867 20.7842 17.8339 21.0059 18.5 21.0059C19.1661 21.0059 19.8133 20.7842 20.3395 20.3757C20.8657 19.9673 21.241 19.3953 21.4063 18.75H23C23.3978 18.75 23.7794 18.592 24.0607 18.3107C24.342 18.0294 24.5 17.6478 24.5 17.25V11.25C24.5003 11.1536 24.4818 11.0581 24.4456 10.9688ZM18.5 8.25H21.7419L22.6419 10.5H18.5V8.25ZM3.5 6.75H17V12.75H3.5V6.75ZM8 19.5C7.70333 19.5 7.41332 19.412 7.16665 19.2472C6.91997 19.0824 6.72771 18.8481 6.61418 18.574C6.50065 18.2999 6.47094 17.9983 6.52882 17.7074C6.5867 17.4164 6.72956 17.1491 6.93934 16.9393C7.14912 16.7296 7.41639 16.5867 7.70737 16.5288C7.99834 16.4709 8.29994 16.5006 8.57403 16.6142C8.84811 16.7277 9.08238 16.92 9.2472 17.1666C9.41203 17.4133 9.5 17.7033 9.5 18C9.5 18.3978 9.34197 18.7794 9.06066 19.0607C8.77936 19.342 8.39783 19.5 8 19.5ZM15.5938 17.25H10.9063C10.741 16.6047 10.3657 16.0327 9.83952 15.6243C9.31331 15.2158 8.66613 14.9941 8 14.9941C7.33387 14.9941 6.68669 15.2158 6.16048 15.6243C5.63428 16.0327 5.25898 16.6047 5.09375 17.25H3.5V14.25H17V15.4041C16.6551 15.6034 16.3532 15.8692 16.1119 16.1861C15.8705 16.5029 15.6944 16.8646 15.5938 17.25ZM18.5 19.5C18.2033 19.5 17.9133 19.412 17.6666 19.2472C17.42 19.0824 17.2277 18.8481 17.1142 18.574C17.0007 18.2999 16.9709 17.9983 17.0288 17.7074C17.0867 17.4164 17.2296 17.1491 17.4393 16.9393C17.6491 16.7296 17.9164 16.5867 18.2074 16.5288C18.4983 16.4709 18.7999 16.5006 19.074 16.6142C19.3481 16.7277 19.5824 16.92 19.7472 17.1666C19.912 17.4133 20 17.7033 20 18C20 18.3978 19.842 18.7794 19.5607 19.0607C19.2794 19.342 18.8978 19.5 18.5 19.5ZM23 17.25H21.4063C21.239 16.6063 20.863 16.0362 20.3371 15.629C19.8112 15.2218 19.1651 15.0006 18.5 15V12H23V17.25Z" fill="#C98810"/>
</g>
<defs>
<clipPath id="clip0_1_11865">
<rect width="24" height="24" fill="white" transform="translate(0.5)"/>
</clipPath>
</defs>
</svg>
